<svg width="72" height="72" viewBox="0 0 72 72" fill="none" xmlns="http://www.w3.org/2000/svg">
<path d="M0 6.42857H38.5714V48.8571C38.5714 50.2773 37.4202 51.4286 36 51.4286H2.57143C1.15127 51.4286 0 50.2773 0 48.8571V6.42857Z" fill="#F6F6F6"/>
<path d="M7.39286 15.75C7.39286 15.0399 7.96849 14.4643 8.67857 14.4643H32.4643C33.1744 14.4643 33.75 15.0399 33.75 15.75C33.75 16.4601 33.1744 17.0357 32.4643 17.0357H8.67857C7.96849 17.0357 7.39286 16.4601 7.39286 15.75Z" fill="#E2E4E8"/>
<path d="M7.39286 23.4643C7.39286 22.7542 7.96849 22.1786 8.67857 22.1786H32.4643C33.1744 22.1786 33.75 22.7542 33.75 23.4643C33.75 24.1744 33.1744 24.75 32.4643 24.75H8.67857C7.96849 24.75 7.39286 24.1744 7.39286 23.4643Z" fill="#E2E4E8"/>
<path d="M7.39286 31.1786C7.39286 30.4685 7.96849 29.8929 8.67857 29.8929H32.4643C33.1744 29.8929 33.75 30.4685 33.75 31.1786C33.75 31.8887 33.1744 32.4643 32.4643 32.4643H8.67857C7.96849 32.4643 7.39286 31.8887 7.39286 31.1786Z" fill="#E2E4E8"/>
<path d="M7.39286 38.8929C7.39286 38.1828 7.96849 37.6071 8.67857 37.6071H32.4643C33.1744 37.6071 33.75 38.1828 33.75 38.8929C33.75 39.6029 33.1744 40.1786 32.4643 40.1786H8.67857C7.96849 40.1786 7.39286 39.6029 7.39286 38.8929Z" fill="#E2E4E8"/>
<path d="M0 1.92857C0 0.863451 0.863451 0 1.92857 0H36.6429C37.708 0 38.5714 0.863451 38.5714 1.92857V6.42857H0V1.92857Z" fill="#9197A2"/>
<path d="M33.4286 27H72V69.4286C72 70.8487 70.8487 72 69.4286 72H36C34.5798 72 33.4286 70.8487 33.4286 69.4286V27Z" fill="#F6F6F6"/>
<path d="M33.4286 22.5C33.4286 21.4349 34.292 20.5714 35.3571 20.5714H70.0714C71.1366 20.5714 72 21.4349 72 22.5V27H33.4286V22.5Z" fill="#9197A2"/>
<path d="M37.2857 36.9643C37.2857 36.2542 37.8613 35.6786 38.5714 35.6786H62.3571C63.0672 35.6786 63.6429 36.2542 63.6429 36.9643C63.6429 37.6744 63.0672 38.25 62.3571 38.25H38.5714C37.8613 38.25 37.2857 37.6744 37.2857 36.9643Z" fill="#E2E4E8"/>
<path d="M37.2857 44.6786C37.2857 43.9685 37.8613 43.3929 38.5714 43.3929H62.3571C63.0672 43.3929 63.6429 43.9685 63.6429 44.6786C63.6429 45.3887 63.0672 45.9643 62.3571 45.9643H38.5714C37.8613 45.9643 37.2857 45.3887 37.2857 44.6786Z" fill="#E2E4E8"/>
<path d="M37.2857 52.3929C37.2857 51.6828 37.8613 51.1071 38.5714 51.1071H62.3571C63.0672 51.1071 63.6429 51.6828 63.6429 52.3929C63.6429 53.1029 63.0672 53.6786 62.3571 53.6786H38.5714C37.8613 53.6786 37.2857 53.1029 37.2857 52.3929Z" fill="#E2E4E8"/>
<path d="M37.2857 60.1071C37.2857 59.3971 37.8613 58.8214 38.5714 58.8214H62.3571C63.0672 58.8214 63.6429 59.3971 63.6429 60.1071C63.6429 60.8172 63.0672 61.3929 62.3571 61.3929H38.5714C37.8613 61.3929 37.2857 60.8172 37.2857 60.1071Z" fill="#E2E4E8"/>
<path d="M16.7143 18H55.2857V60.4286C55.2857 61.8487 54.1344 63 52.7143 63H19.2857C17.8656 63 16.7143 61.8487 16.7143 60.4286V18Z" fill="#EFEFEF"/>
<path d="M25.8567 27.8358C25.6317 28.4143 25.9853 29.1858 26.9174 30.0215L27.5924 30.6322L26.6282 31.725C25.5353 32.9786 25.471 33.2036 26.1782 33.8786C26.8532 34.5858 27.1103 34.5215 28.2996 33.4608L29.3603 32.5286L30.421 33.4608C31.2889 34.2322 31.6103 34.3286 32.0924 34.0715C32.9603 33.5893 32.896 32.4 31.9317 31.5L31.1282 30.7286L31.9639 29.8608C33.6996 28.0286 32.0282 26.3572 30.196 28.0929L29.3282 28.9286L28.5567 28.125C27.6889 27.225 26.1782 27.0322 25.8567 27.8358Z" fill="#9197A2"/>
<path d="M39.3885 27.5465C38.9063 27.9965 39.1956 29.1858 39.967 29.8929L40.7706 30.6643L39.967 31.5C39.0028 32.4965 38.9385 33.5893 39.8063 34.0715C40.3206 34.3286 40.6099 34.2322 41.4778 33.4608L42.5385 32.5286L43.5992 33.4608C44.8206 34.5215 45.0456 34.5858 45.7206 33.8786C46.4278 33.2036 46.3635 32.9786 45.2706 31.725L44.3063 30.6322L44.9813 30.0215C46.042 29.0893 46.3313 28.3179 45.8813 27.7715C45.3028 27.0965 44.2742 27.225 43.3421 28.125L42.5063 28.9286L41.7349 28.125C41.0278 27.3536 39.8385 27.0643 39.3885 27.5465Z" fill="#9197A2"/>
<path d="M32.8314 39.9856C30.9028 40.5963 29.3921 41.6249 27.9136 43.2963C26.21 45.257 26.21 46.9285 27.9136 46.9285C28.0743 46.9285 28.7171 46.2213 29.36 45.3213C32.6386 40.8213 39.3564 40.8535 42.635 45.3856C43.2457 46.2535 43.9207 46.9285 44.1457 46.9285C44.5636 46.9285 45.5921 46.0927 45.5921 45.7713C45.5921 45.1927 44.435 43.6177 43.1171 42.3963C40.385 39.8249 36.3671 38.8927 32.8314 39.9856Z" fill="#9197A2"/>
<path d="M16.7143 13.5C16.7143 12.4349 17.5777 11.5714 18.6429 11.5714H53.3571C54.4223 11.5714 55.2857 12.4349 55.2857 13.5V18H16.7143V13.5Z" fill="#9197A2"/>
</svg>
